<?xml version="1.0" standalone="no"?>
<!DOCTYPE svg PUBLIC "-//W3C//DTD SVG 20010904//EN"
 "http://www.w3.org/TR/2001/REC-SVG-20010904/DTD/svg10.dtd">
<svg version="1.0" xmlns="http://www.w3.org/2000/svg"
 width="300.000000pt" height="313.000000pt" viewBox="0 0 300.000000 313.000000"
 preserveAspectRatio="xMidYMid meet">
<metadata>
Created by potrace 1.10, written by Peter Selinger 2001-2011
</metadata>
<g transform="translate(0.000000,313.000000) scale(0.100000,-0.100000)"
fill="#000000" stroke="none">
<path d="M1385 3054 c-353 -54 -666 -290 -796 -602 -34 -83 -74 -230 -81 -304
-5 -44 -4 -48 16 -48 19 0 23 9 34 80 33 211 117 381 264 536 179 188 386 281
653 291 260 10 463 -59 662 -227 170 -142 305 -395 339 -632 5 -41 10 -48 28
-48 22 0 22 2 14 63 -29 217 -127 420 -278 580 -134 142 -299 240 -480 287
-83 21 -301 35 -375 24z"/>
<path d="M1340 2935 c-271 -54 -509 -241 -639 -501 -62 -123 -84 -225 -84
-379 -1 -103 4 -147 22 -214 59 -224 198 -418 393 -548 258 -172 597 -190 878
-48 221 112 407 336 470 567 71 259 25 518 -131 749 -125 186 -337 329 -553
374 -90 18 -265 18 -356 0z m379 -56 c223 -57 423 -212 535 -414 23 -42 86
-187 86 -199 0 -2 -18 -6 -40 -8 l-40 -4 0 63 c0 81 -19 103 -88 103 -80 0
-85 -11 -80 -182 l3 -144 -47 10 c-33 7 -54 6 -72 -2 -25 -11 -26 -14 -26
-117 l0 -105 -55 0 c-82 0 -95 -17 -95 -125 l0 -85 -34 0 c-40 0 -87 -16 -98
-33 -4 -7 -8 -45 -8 -84 l0 -73 -41 0 c-22 0 -49 -5 -60 -10 -18 -10 -19 -6
-19 97 l0 108 43 45 c178 186 332 479 351 670 28 274 -212 510 -476 469 -216
-34 -364 -211 -361 -431 1 -43 -2 -78 -6 -78 -5 0 -39 32 -77 72 -38 39 -90
91 -116 116 l-47 44 45 52 c83 96 204 173 358 226 152 53 308 59 465 19z m-37
-107 c126 -62 189 -165 196 -319 4 -80 1 -105 -23 -180 -52 -168 -161 -350
-301 -506 l-38 -41 -64 69 c-114 123 -229 316 -283 475 -31 91 -31 232 0 311
24 64 86 139 141 174 68 43 119 55 215 52 79 -2 99 -6 157 -35z m-777 -313
l75 -72 0 -63 0 -64 -150 0 c-82 0 -150 2 -150 4 0 2 14 39 31 81 40 99 89
185 106 185 7 0 47 -32 88 -71z m1303 -494 l2 -399 -32 -48 c-18 -26 -36 -48
-41 -48 -9 0 -9 885 1 894 3 4 20 6 37 4 l30 -3 3 -400z m-1173 364 c4 -6 25
-24 47 -40 l41 -29 -50 0 -51 0 -4 40 c-3 39 4 51 17 29z m-56 -224 l0 -115
-160 0 -159 0 0 54 c0 29 3 81 6 115 l7 61 153 0 154 0 -1 -115z m161 100 c0
-9 21 -57 47 -108 26 -50 49 -95 51 -99 2 -5 -46 -8 -107 -8 l-111 0 0 115 0
115 60 0 c47 0 60 -3 60 -15z m1189 -2 l23 -6 -4 -186 c-5 -181 -6 -188 -37
-268 -18 -46 -36 -85 -41 -88 -7 -5 -2 517 5 543 5 13 18 15 54 5z m-263 -474
l2 -325 -39 -32 c-21 -18 -39 -29 -41 -25 -2 5 -2 167 0 361 l3 353 37 -3 37
-3 1 -326z m-1086 143 c0 -70 -2 -78 -22 -87 -13 -6 -29 -22 -36 -37 -13 -28
-14 -28 -107 -28 l-94 0 -16 58 c-9 31 -20 71 -25 87 -4 17 -11 42 -14 58 l-6
27 160 0 160 0 0 -78z m318 29 c28 -42 32 -58 32 -115 l0 -66 -120 0 -119 0
-15 29 c-9 16 -24 31 -36 34 -18 5 -20 13 -20 86 l0 81 123 0 124 0 31 -49z
m630 -336 l3 -261 -37 -17 c-20 -10 -38 -17 -39 -15 -4 3 -9 440 -7 511 l2 48
38 -3 37 -3 3 -260z m-509 193 l35 -38 -42 0 -42 0 0 47 c0 26 3 43 8 38 4 -6
23 -27 41 -47z m-389 -18 c24 -24 25 -38 3 -62 -20 -22 -41 -23 -65 -1 -22 20
-23 41 -1 65 21 23 38 23 63 -2z m-105 -78 c3 -11 17 -24 30 -30 24 -11 25
-15 25 -102 l0 -90 -33 0 c-24 0 -41 9 -64 33 -33 34 -133 184 -133 198 0 5
38 9 84 9 74 0 85 -2 91 -18z m405 -102 l0 -120 -155 0 -155 0 0 88 c0 84 1
89 25 102 13 7 27 21 31 32 5 16 18 18 130 18 l124 0 0 -120z m170 16 c0 -57
3 -111 6 -120 5 -14 -4 -16 -65 -16 l-71 0 0 120 0 120 65 0 65 0 0 -104z
m278 32 c8 -8 12 -65 12 -189 l0 -177 -36 -12 c-19 -7 -38 -10 -41 -7 -2 3 -7
88 -10 188 -6 169 -5 183 12 196 23 16 47 17 63 1z m-133 -293 l0 -110 -37 -6
-37 -6 -3 109 c-2 60 -1 113 1 119 1 5 19 9 40 7 l36 -3 0 -110z m-315 -11 c0
-86 -2 -95 -17 -90 -68 18 -65 16 -61 57 3 34 -1 44 -29 71 l-33 32 -30 -29
c-20 -19 -28 -35 -24 -47 7 -25 3 -23 -61 17 -42 27 -55 41 -55 60 l0 25 155
0 155 0 0 -96z m180 61 c0 -34 -1 -35 -38 -35 -60 0 -82 -22 -82 -81 0 -27 -4
-49 -10 -49 -6 0 -10 40 -10 100 l0 100 70 0 70 0 0 -35z m-300 -91 c0 -31
-23 -28 -28 4 -2 15 2 22 12 22 11 0 16 -9 16 -26z m300 -45 l0 -40 -37 3
c-36 3 -38 4 -36 38 1 19 2 36 2 38 1 1 17 2 36 2 34 0 35 -1 35 -41z"/>
<path d="M1447 2716 c-74 -20 -127 -64 -164 -136 -88 -167 11 -354 199 -376
123 -14 233 53 278 172 73 195 -112 396 -313 340z m157 -45 l29 -12 -23 -16
c-21 -15 -25 -15 -50 1 -49 29 -70 21 -139 -51 -90 -96 -114 -135 -109 -178 5
-40 -9 -48 -17 -10 -3 14 -7 36 -10 49 -7 35 22 115 57 156 61 70 175 97 262
61z m-42 -83 l37 -43 1 33 c0 28 3 32 26 32 27 0 27 -1 21 -57 -5 -48 -3 -61
13 -78 16 -17 17 -29 11 -82 -9 -74 -30 -103 -76 -103 -45 0 -63 25 -67 90 -2
41 -7 55 -18 55 -11 0 -15 -13 -15 -58 0 -46 -4 -62 -19 -73 -54 -39 -126 4
-126 75 0 22 -2 45 -5 53 -6 15 149 198 168 198 7 0 29 -19 49 -42z m162 -49
c19 -43 17 -113 -4 -147 -8 -13 -10 -5 -5 31 4 27 2 47 -3 47 -16 0 -35 58
-28 85 9 35 19 31 40 -16z m-189 -265 c37 -24 31 -34 -20 -34 -49 0 -53 4 -28
32 20 22 18 22 48 2z"/>
<path d="M1443 2512 c-55 -67 -63 -82 -63 -119 0 -39 19 -73 40 -73 30 0 40
14 40 59 0 122 95 123 102 1 3 -50 5 -55 27 -58 33 -5 51 21 51 75 0 39 -7 52
-62 118 -35 40 -65 73 -68 74 -3 0 -33 -35 -67 -77z"/>
<path d="M1497 2104 c-13 -14 -7 -52 10 -58 25 -10 51 20 37 42 -12 19 -36 27
-47 16z"/>
<path d="M1503 1983 c-19 -7 -16 -53 3 -60 24 -9 46 24 33 48 -10 19 -15 21
-36 12z"/>
<path d="M790 2413 c-19 -22 -28 -39 -21 -41 6 -2 11 -19 11 -37 0 -26 4 -33
18 -31 11 2 17 12 17 32 1 19 6 29 15 29 10 0 14 -9 13 -27 -1 -23 2 -28 22
-28 22 0 24 3 19 30 -4 20 -2 30 5 30 12 0 -48 79 -60 80 -4 0 -22 -17 -39
-37z"/>
<path d="M783 2149 c-46 -42 -52 -52 -28 -43 12 5 15 -3 15 -36 0 -37 2 -41
22 -38 17 2 22 10 23 35 0 43 20 43 21 0 0 -27 4 -32 25 -32 21 0 24 4 21 29
-2 16 3 33 10 37 10 6 3 19 -27 48 l-40 40 -42 -40z"/>
<path d="M1086 2124 c-9 -22 -7 -94 2 -94 4 0 17 3 28 6 42 11 35 104 -7 104
-9 0 -20 -7 -23 -16z"/>
<path d="M776 1874 c-30 -34 -35 -44 -21 -44 14 0 16 -6 13 -30 -4 -26 -2 -30
20 -30 22 0 24 3 19 30 -6 25 -3 30 13 30 16 0 20 -6 18 -32 -3 -28 1 -34 20
-36 22 -3 23 -1 16 32 -5 30 -3 36 11 36 14 0 8 10 -21 44 -22 24 -41 44 -44
44 -3 0 -22 -20 -44 -44z"/>
<path d="M1141 1873 c-29 -28 -38 -43 -27 -43 12 0 16 -9 16 -34 0 -30 2 -33
26 -28 23 4 25 8 20 33 -5 24 -2 29 15 29 18 0 20 -4 14 -30 -5 -23 -3 -30 9
-30 9 0 19 -1 23 -2 4 -2 10 14 14 35 5 34 2 42 -30 76 l-36 37 -44 -43z"/>
<path d="M851 1607 c-19 -21 -20 -25 -6 -37 8 -7 15 -20 15 -30 0 -29 30 -18
47 17 14 31 14 35 -2 53 -23 25 -27 25 -54 -3z"/>
<path d="M1141 1598 c-24 -23 -39 -44 -33 -46 7 -2 12 -17 12 -33 0 -26 3 -29
31 -29 29 0 30 2 24 30 -6 26 -4 30 15 30 19 0 21 -4 15 -30 -6 -27 -4 -30 19
-30 23 0 26 3 20 26 -4 17 -2 29 7 35 11 7 5 17 -26 48 l-40 40 -44 -41z"/>
<path d="M1422 1578 c-13 -25 -3 -89 14 -95 5 -2 17 12 25 31 13 29 14 38 2
60 -17 32 -26 33 -41 4z"/>
<path d="M327 2374 c-4 -4 -7 -67 -7 -140 l0 -133 -50 -4 -50 -4 52 1 53 1 5
134 c3 90 9 136 17 138 6 2 14 -6 16 -19 5 -21 5 -21 4 2 -2 24 -26 38 -40 24z"/>
<path d="M2653 2363 c-10 -3 -13 -40 -13 -133 l0 -129 -52 -4 -53 -3 58 -2 57
-2 0 129 c0 81 4 132 11 136 6 4 12 5 14 3 2 -2 5 -62 7 -133 l3 -130 105 -1
105 0 -97 3 -98 4 0 122 c0 135 -7 157 -47 140z"/>
<path d="M360 2270 c0 -22 5 -40 10 -40 6 0 10 18 10 40 0 22 -4 40 -10 40 -5
0 -10 -18 -10 -40z"/>
<path d="M206 2231 c-4 -5 2 -7 11 -5 10 2 24 0 32 -5 12 -8 12 -12 2 -25 -10
-11 -10 -16 -2 -16 18 0 25 29 11 45 -14 17 -46 20 -54 6z"/>
<path d="M424 2225 c-13 -32 23 -63 40 -36 4 5 -3 7 -14 4 -15 -4 -20 0 -20
16 0 23 19 28 40 9 12 -11 12 -10 1 5 -16 21 -40 22 -47 2z"/>
<path d="M2752 2228 c-18 -18 -15 -36 7 -48 23 -12 47 -5 55 17 13 33 -36 57
-62 31z m54 -9 c3 -6 -1 -18 -9 -27 -13 -13 -19 -13 -32 -2 -12 10 -13 16 -4
26 14 17 35 18 45 3z"/>
<path d="M360 2151 c0 -23 5 -41 10 -41 6 0 10 15 10 34 0 19 -4 38 -10 41 -6
4 -10 -10 -10 -34z"/>
<path d="M47 2086 c-12 -31 22 -40 149 -40 l123 0 3 -120 c3 -117 4 -121 26
-124 21 -3 22 -1 20 65 l-2 68 -3 -62 c-3 -46 -8 -63 -18 -63 -12 0 -15 25
-17 123 l-3 122 -128 1 c-80 0 -132 5 -139 12 -13 13 -1 19 52 25 30 3 28 4
-11 5 -33 2 -49 -2 -52 -12z"/>
<path d="M2938 2093 c15 -3 22 -10 20 -21 -3 -15 -20 -17 -129 -18 -69 0 -130
-3 -136 -7 -8 -5 -11 -47 -10 -127 0 -66 -2 -123 -7 -127 -17 -17 -25 27 -24
133 0 61 -3 117 -6 123 -9 14 -86 14 -86 0 0 -7 14 -8 40 -4 l40 7 0 -113 c0
-112 13 -179 36 -179 17 0 24 49 24 171 l0 109 123 0 c107 0 126 2 140 18 20
22 5 43 -27 41 -18 -2 -18 -2 2 -6z"/>
<path d="M370 2050 c0 -5 23 -10 50 -10 28 0 50 5 50 10 0 6 -22 10 -50 10
-27 0 -50 -4 -50 -10z"/>
<path d="M500 2028 c0 -62 32 -223 60 -303 132 -375 459 -634 864 -684 206
-25 462 44 657 177 259 177 409 439 443 776 6 51 4 58 -10 52 -8 -3 -19 -6
-23 -6 -5 0 -11 -31 -14 -68 -33 -356 -274 -681 -602 -813 -327 -132 -650 -90
-935 122 -216 159 -349 393 -382 668 -12 95 -14 101 -35 101 -17 0 -23 -6 -23
-22z"/>
<path d="M369 1990 c-6 -45 -4 -58 7 -48 3 3 4 26 2 49 l-3 44 -6 -45z"/>
<path d="M213 1983 c-17 -6 -16 -38 1 -52 20 -16 46 -3 46 24 0 18 -22 40 -33
34 -1 0 -8 -3 -14 -6z m34 -19 c8 -21 -13 -42 -28 -27 -13 13 -5 43 11 43 6 0
13 -7 17 -16z"/>
<path d="M2755 1976 c-11 -8 -16 -19 -12 -30 11 -27 37 -31 60 -8 18 18 19 24
8 34 -11 11 -13 10 -8 -4 9 -24 -26 -43 -42 -24 -9 11 -7 18 11 30 12 9 18 16
12 16 -6 0 -19 -6 -29 -14z"/>
<path d="M330 1765 c-18 -22 -8 -60 15 -60 15 0 21 8 23 31 3 35 -19 52 -38
29z m30 -31 c0 -31 -23 -28 -28 4 -2 15 2 22 12 22 11 0 16 -9 16 -26z"/>
<path d="M2659 1673 c-5 -31 4 -210 11 -217 5 -5 16 -6 24 -3 13 5 16 24 16
94 0 107 -6 133 -31 133 -11 0 -20 -3 -20 -7z"/>
<path d="M509 1314 c-9 -11 -10 -20 -2 -32 24 -39 82 -15 68 28 -8 24 -47 27
-66 4z m56 -19 c0 -25 -40 -33 -49 -10 -9 24 2 37 27 33 14 -2 22 -10 22 -23z"/>
<path d="M974 950 c-57 -23 -84 -117 -48 -168 41 -59 117 -68 171 -19 30 28
36 40 36 73 0 51 -16 80 -56 104 -34 21 -68 24 -103 10z m95 -66 c27 -34 27
-68 0 -95 -17 -17 -29 -20 -58 -15 -61 10 -82 68 -39 113 29 31 71 30 97 -3z"/>
<path d="M2174 950 c-28 -11 -64 -58 -64 -82 0 -15 -4 -18 -17 -13 -39 16 -63
16 -98 -1 -48 -22 -81 -91 -168 -341 -12 -35 -25 -63 -29 -63 -3 0 -11 15 -17
33 -6 17 -39 103 -73 190 -70 178 -78 187 -167 187 -38 0 -56 -6 -78 -24 l-28
-24 21 -50 21 -49 -44 5 c-34 4 -51 0 -72 -16 -28 -20 -28 -20 -44 -1 -12 14
-30 19 -66 19 -59 0 -98 -27 -105 -73 -3 -18 -2 -140 2 -272 l7 -240 36 -18
c30 -14 45 -16 79 -8 63 14 69 29 70 163 0 64 -5 129 -10 143 -8 22 -6 34 11
61 27 44 47 54 109 54 43 0 53 3 57 20 9 33 19 24 48 -42 15 -35 40 -90 55
-123 15 -33 40 -89 56 -125 42 -98 75 -143 111 -154 39 -11 85 6 106 38 7 11
67 154 132 317 l118 297 33 -14 c53 -22 83 -17 120 20 28 28 34 41 34 78 0 83
-73 138 -146 108z m85 -66 c12 -15 21 -37 21 -50 0 -31 -33 -64 -65 -64 -31 0
-75 41 -75 70 0 29 44 70 74 70 15 0 33 -11 45 -26z m-174 -68 c19 -13 15 -26
-106 -327 -99 -248 -130 -317 -152 -333 -21 -16 -32 -18 -45 -10 -30 19 -114
201 -238 514 -60 152 -59 166 11 157 26 -4 45 -13 55 -28 18 -27 180 -428 180
-446 0 -30 16 -9 33 43 25 79 146 385 163 411 7 12 26 24 41 26 16 2 31 5 34
6 3 0 14 -5 24 -13z m-586 -142 c2 -2 -2 -26 -9 -54 -12 -52 -13 -52 -46 -46
-42 8 -94 -13 -122 -49 -21 -26 -22 -38 -22 -196 0 -156 -1 -169 -19 -179 -28
-14 -52 -12 -73 7 -16 15 -18 37 -18 264 l0 249 24 6 c13 3 37 4 52 2 25 -2
29 -8 32 -35 4 -38 12 -41 30 -12 20 31 90 60 132 52 19 -3 37 -7 39 -9z"/>
<path d="M522 834 c-25 -17 -63 -89 -145 -274 -30 -69 -85 -187 -121 -263 -36
-75 -66 -144 -66 -152 0 -32 102 -53 160 -32 28 9 42 25 70 76 l35 64 123 1
123 1 20 -45 c11 -25 32 -57 46 -72 27 -28 27 -28 170 -28 199 0 183 -25 183
294 l0 254 -31 26 c-38 33 -105 36 -140 7 -24 -19 -24 -23 -29 -238 -4 -190
-7 -214 -18 -188 -82 190 -261 550 -280 566 -30 23 -70 24 -100 3z m93 -51 c8
-16 48 -98 89 -183 40 -85 104 -219 141 -298 72 -151 74 -161 18 -162 -45 0
-72 22 -103 86 l-32 63 -153 3 -154 3 -32 -67 c-40 -82 -87 -109 -133 -75 -16
12 -13 21 39 132 31 66 83 180 116 252 32 73 74 164 94 203 32 63 38 70 65 70
21 0 33 -7 45 -27z m445 -123 c19 -19 20 -31 18 -262 l-3 -243 -28 -9 c-21 -8
-35 -7 -55 5 l-27 15 -3 238 c-2 212 0 241 14 258 22 24 59 23 84 -2z"/>
<path d="M520 523 c-25 -58 -46 -110 -48 -115 -2 -4 42 -8 97 -8 56 0 101 4
101 9 0 9 -98 221 -102 221 -2 0 -23 -48 -48 -107z m72 -43 l17 -40 -39 0 -38
0 15 40 c9 22 19 40 22 40 3 0 14 -18 23 -40z"/>
<path d="M2451 698 c-111 -60 -145 -209 -67 -297 19 -22 114 -71 137 -71 5 0
26 -7 46 -15 30 -13 34 -17 23 -30 -17 -21 -59 -12 -128 27 l-54 29 -39 -42
c-66 -72 -55 -116 43 -165 58 -29 165 -41 226 -25 81 22 152 111 152 191 0 46
-31 111 -64 138 -29 22 -84 44 -153 62 -32 8 -43 16 -43 30 0 27 32 26 104 -1
55 -21 57 -21 76 -4 12 10 30 34 42 53 20 33 21 34 1 60 -31 43 -105 75 -187
79 -60 4 -77 1 -115 -19z m190 -30 c57 -19 90 -47 80 -66 -30 -54 -35 -57 -80
-39 -58 24 -113 22 -137 -4 -17 -18 -17 -23 -4 -46 11 -19 35 -32 100 -53 65
-21 91 -35 112 -60 63 -76 38 -191 -51 -237 -51 -27 -124 -30 -194 -9 -48 14
-107 51 -107 67 0 5 12 23 28 40 l27 30 55 -25 c63 -30 106 -33 138 -10 22 15
29 48 14 72 -5 6 -46 25 -92 41 -53 19 -94 41 -114 60 -28 29 -31 37 -31 96 0
57 3 67 30 96 17 17 44 37 60 45 37 16 121 18 166 2z"/>
<path d="M2139 681 l-29 -29 0 -240 0 -240 25 -30 c14 -17 39 -33 55 -37 38
-8 91 9 107 34 14 22 20 491 7 524 -9 25 -56 47 -99 47 -27 0 -44 -8 -66 -29z
m109 -17 c22 -15 22 -18 22 -259 0 -231 -1 -245 -19 -255 -28 -15 -46 -13 -72
8 -22 19 -22 20 -20 258 2 208 4 241 18 252 22 16 44 15 71 -4z"/>
</g>
</svg>
